<?xml version="1.0" encoding="utf-8"?>
<!-- Generator: Adobe Illustrator 16.0.3, SVG Export Plug-In . SVG Version: 6.00 Build 0)  -->
<!DOCTYPE svg PUBLIC "-//W3C//DTD SVG 1.1//EN" "http://www.w3.org/Graphics/SVG/1.1/DTD/svg11.dtd">
<svg version="1.1" id="Vrstva_1" xmlns="http://www.w3.org/2000/svg" xmlns:xlink="http://www.w3.org/1999/xlink" x="0px" y="0px"
	 width="41.863px" height="39.604px" viewBox="0.318 0.021 41.863 39.604" enable-background="new 0.318 0.021 41.863 39.604"
	 xml:space="preserve">
<title>Group 2</title>
<desc>Created with Sketch.</desc>
<g id="Page-1">
	<g id="Group-2">
		<g id="Group" transform="translate(-0.000000, 0.000000)">
			<path id="Fill-377" fill="#00D2FF" d="M21.246,12.791c1.813,0,3.56,0.121,5.223,0.359c0.008-0.209,0.013-0.417,0.013-0.624
				c0-2.887-2.349-5.236-5.236-5.236s-5.236,2.349-5.236,5.236c0,0.207,0.004,0.415,0.013,0.624
				C17.686,12.912,19.432,12.791,21.246,12.791 M17.776,20.252c0.442,1.021,0.966,2.057,1.569,3.1
				c0.603,1.045,1.237,2.016,1.901,2.91c0.664-0.895,1.298-1.865,1.9-2.909c0.603-1.044,1.126-2.079,1.569-3.101
				c-1.105-0.128-2.264-0.192-3.469-0.192S18.882,20.124,17.776,20.252 M10.749,22.283c-0.186,0.098-0.368,0.198-0.547,0.301
				c-2.5,1.443-3.36,4.652-1.916,7.153c0.932,1.616,2.673,2.62,4.543,2.62c0.911,0,1.813-0.244,2.609-0.703
				c0.179-0.104,0.357-0.211,0.534-0.324c-1.039-1.32-2.016-2.772-2.923-4.344C12.143,25.416,11.374,23.844,10.749,22.283
				 M26.519,31.33c0.177,0.113,0.355,0.221,0.534,0.324c0.797,0.459,1.7,0.703,2.61,0.703c1.869,0,3.61-1.004,4.543-2.62
				c0.699-1.212,0.886-2.622,0.523-3.974s-1.229-2.48-2.44-3.18c-0.179-0.103-0.361-0.203-0.546-0.301
				c-0.625,1.561-1.394,3.133-2.301,4.703C28.535,28.558,27.558,30.01,26.519,31.33 M29.662,39.625
				c-2.185,0-4.344-0.579-6.244-1.676c-0.739-0.428-1.465-0.904-2.172-1.428c-0.708,0.523-1.433,1-2.172,1.428
				c-1.9,1.097-4.06,1.676-6.244,1.676h0c-4.458,0-8.611-2.396-10.838-6.253C-1.457,27.4,0.596,19.737,6.568,16.29
				c0.739-0.427,1.515-0.817,2.322-1.168C8.791,14.247,8.74,13.38,8.74,12.526c0-6.895,5.61-12.505,12.505-12.505
				s12.505,5.61,12.505,12.505c0,0.854-0.05,1.72-0.149,2.595c0.807,0.352,1.583,0.741,2.322,1.168
				c2.892,1.67,4.962,4.367,5.826,7.593c0.865,3.227,0.421,6.596-1.25,9.489C38.273,37.229,34.12,39.625,29.662,39.625"/>
			<path id="Fill-378" fill="#20A6D6" d="M24.714,20.253c2.679,0.308,5.033,0.985,7.028,2.032c0.972-2.426,1.594-4.819,1.859-7.164
				c-2.163-0.942-4.546-1.6-7.133-1.971C26.377,15.401,25.788,17.779,24.714,20.253"/>
			<path id="Fill-379" fill="#20A6D6" d="M26.52,31.331c-1.903-1.204-3.667-2.905-5.273-5.071c-1.606,2.166-3.371,3.867-5.273,5.071
				c1.614,2.056,3.375,3.79,5.273,5.192C23.144,35.121,24.905,33.387,26.52,31.331"/>
			<path id="Fill-380" fill="#20A6D6" d="M17.778,20.253c-1.073-2.474-1.663-4.852-1.755-7.103c-2.586,0.371-4.97,1.028-7.133,1.971
				c0.266,2.345,0.888,4.738,1.859,7.164C12.745,21.238,15.099,20.561,17.778,20.253"/>
		</g>
	</g>
</g>
</svg>
