<?xml version="1.0" encoding="utf-8"?>
<!-- Generator: Adobe Illustrator 16.0.3, SVG Export Plug-In . SVG Version: 6.00 Build 0)  -->
<!DOCTYPE svg PUBLIC "-//W3C//DTD SVG 1.1//EN" "http://www.w3.org/Graphics/SVG/1.1/DTD/svg11.dtd">
<svg version="1.1" id="Vrstva_1" xmlns="http://www.w3.org/2000/svg" xmlns:xlink="http://www.w3.org/1999/xlink" x="0px" y="0px"
	 width="248px" height="246px" viewBox="0 0 248 246" enable-background="new 0 0 248 246" xml:space="preserve">
<title>Group 29</title>
<desc>Created with Sketch.</desc>
<path id="Marketing_x2F_Logos_x2F_Sprocket" fill="#FF7A59" d="M176.883,176.427c-18.09,0-32.752-14.511-32.752-32.409
	c0-17.902,14.662-32.413,32.752-32.413s32.752,14.51,32.752,32.413C209.635,161.916,194.973,176.427,176.883,176.427
	 M186.688,81.619V52.786c7.605-3.555,12.934-11.168,12.934-20.004v-0.666c0-12.194-10.082-22.171-22.406-22.171h-0.668
	c-12.324,0-22.404,9.977-22.404,22.171v0.666c0,8.836,5.328,16.453,12.932,20.007v28.83c-11.322,1.732-21.668,6.354-30.201,13.156
	L56.878,33.193c0.528-2.006,0.898-4.072,0.902-6.242c0.013-13.809-11.282-25.02-25.241-25.039
	C18.585,1.897,7.252,13.078,7.237,26.888C7.221,40.7,18.515,51.912,32.476,51.928c4.547,0.005,8.758-1.272,12.448-3.351
	l78.689,60.58c-6.691,9.996-10.613,21.97-10.613,34.86c0,13.494,4.309,25.978,11.587,36.243l-23.928,23.683
	c-1.892-0.562-3.853-0.954-5.934-0.954c-11.468,0-20.767,9.199-20.767,20.548c0,11.351,9.299,20.551,20.767,20.551
	c11.471,0,20.767-9.2,20.767-20.551c0-2.053-0.396-3.997-0.965-5.867l23.671-23.426c10.746,8.114,24.127,12.99,38.686,12.99
	c35.283,0,63.881-28.305,63.881-63.217C240.764,112.411,217.301,86.299,186.688,81.619"/>
</svg>
