<?xml version="1.0" encoding="utf-8"?>
<!-- Generator: Adobe Illustrator 16.0.3, SVG Export Plug-In . SVG Version: 6.00 Build 0)  -->
<!DOCTYPE svg PUBLIC "-//W3C//DTD SVG 1.1//EN" "http://www.w3.org/Graphics/SVG/1.1/DTD/svg11.dtd">
<svg version="1.1" id="Layer_1" xmlns="http://www.w3.org/2000/svg" xmlns:xlink="http://www.w3.org/1999/xlink" x="0px" y="0px"
	 width="365px" height="122px" viewBox="0 0 365 122" enable-background="new 0 0 365 122" xml:space="preserve">
<g opacity="0.3">
	<rect x="239" y="44" width="11" height="51"/>
	<path d="M140.4,81.6L126.6,44H122V11.1C122,5,117,0,110.9,0H11.1C5,0,0,5,0,11.1v99.8C0,117,5,122,11.1,122h99.8
		c6.1,0,11.1-5,11.1-11.1V63.2L135.1,95h10.5l20.9-51h-12.3L140.4,81.6z M41.4,23.6c4.1,0,7.5,3.2,7.5,7.4c0,4.2-3.4,7.4-7.5,7.4
		c-4.1,0-7.5-3.2-7.5-7.4C33.9,26.8,37.3,23.6,41.4,23.6z M91.4,94c-7.6,0-11.2-4.5-11.2-10.7c0-1.8,0.2-3.6,0.8-5.5l3.6-13
		c0.4-1.4,0.5-2.8,0.5-4c0-4.2-2.5-6.7-6.6-6.7c-5.2,0-8.6,3.6-10.3,10.8l-7,28.1H48.9l2.2-8.7c-3.6,5.9-8.6,9.8-14.8,9.8
		c-7.5,0-11-4.3-11-10.8c0-1.6,0.2-3.6,0.7-5.5L31.5,55h-8.7l2.6-10h20.9l-8.2,32.8c-0.5,2.1-0.8,3.9-0.8,5.1c0,2.1,1,2.7,2.6,3.1
		c1,0.2,8.8,0.1,13-9.4L58.4,55h-8.8l2.6-10h18.8l-2.4,11.1C71.9,50,78.5,44.2,85,44.2c6.9,0,12.6,4.9,12.6,14.4c0,2.4-0.3,5-1.2,8
		l-3.5,12.6c-0.3,1.3-0.5,2.4-0.5,3.4c0,2.2,0.9,3.3,2.5,3.3c1.6,0,3.7-1.2,6.2-7.9l4.8,1.9C103.1,89.9,97.9,94,91.4,94z"/>
	<path d="M346.9,42.6c-7.9,0-11.9,4.2-15.9,9V44h-11v51h11V66c0-7.9,5-12.7,11.8-12.7c7,0,11.2,4.5,11.2,12.5V95h11
		V62.3C365,50.4,358.4,42.6,346.9,42.6z"/>
	<path d="M285.4,42.6c-15.7,0-27.3,12.1-27.3,26.8c0,14.6,11.5,26.5,27.1,26.5c15.8,0,27.4-12.1,27.4-26.7
		C312.6,54.5,301,42.6,285.4,42.6z M285.4,85.8c-9.1,0-15.6-7.5-15.6-16.6c0-9,6-16.4,15.4-16.4c9.2,0,15.7,7.5,15.7,16.6
		C300.8,78.5,294.8,85.8,285.4,85.8z"/>
	<rect x="172" y="44" width="12" height="51"/>
	<path d="M215.3,64.6c-6-1.9-11.3-3.5-11.3-7.2v-0.2c0-3,2.4-5.1,6.9-5.1c2.2,0,4.1,0.5,7.1,1.4v0c0,0,0,0,0.1,0
		c0.2,0.1,0.4,0.2,0.7,0.3c1.9,0.6,6.8,1.4,11.1-5.2c-5.4-3.6-12.3-5.8-18.7-5.8c-10.2,0-18.1,5.9-18.1,15.6v0.2
		c0,9.8,8.2,12.9,15.8,15c6,1.8,11.2,3.2,11.2,7.2V81c0,3.4-2.8,5.5-7.8,5.5c-3.3,0-7-0.9-10.6-2.6c-1.1-0.4-6.5-2.3-11.2,4.3
		c6.4,5,14.4,7.6,21.6,7.6c10.6,0,19-5.3,19-16.1v-0.2C231,70.3,222.8,66.9,215.3,64.6z"/>
</g>
</svg>
