<?xml version="1.0" encoding="utf-8"?>
<!-- Generator: Adobe Illustrator 16.0.3, SVG Export Plug-In . SVG Version: 6.00 Build 0)  -->
<!DOCTYPE svg PUBLIC "-//W3C//DTD SVG 1.1//EN" "http://www.w3.org/Graphics/SVG/1.1/DTD/svg11.dtd">
<svg version="1.1" id="Layer_1" xmlns="http://www.w3.org/2000/svg" xmlns:xlink="http://www.w3.org/1999/xlink" x="0px" y="0px"
	 width="364.6px" height="98.1px" viewBox="0 0 364.6 98.1" enable-background="new 0 0 364.6 98.1" xml:space="preserve">
<g opacity="0.3">
	<path d="M73,25.9C76.3,29.5,77.3,33.7,77.5,38.2c0.1,1.6,0.1,3.199,0.1,4.699c0,0.801,0.3,1.101,1.101,1.4
		c2.1,0.7,4.199,1.4,6.1,2.4c3.9,2.1,5,6,3.1,10c-0.199,0.5-0.3,1.3-0.1,1.8c0.5,1.7,0.8,3.399,2.8,4.399c0.9,0.4,1.5,2.101,1.7,3.4
		c0.5,3.8-0.5,7.5-2,11C86.1,86.7,78.9,93,69.1,96C55.6,100,42.7,98.5,31,90.1c-4.601-3.3-8-7.6-10.4-12.7
		C20.2,76.5,19.7,76.2,18.8,76.1C9.2,75,3.2,66,5.8,56.8C6,55.9,6,55.4,5.2,54.9C5.1,54.8,5,54.8,5,54.7
		c-5.101-3.4-5.8-8.2-4.2-13.5C1.6,38.6,2.6,36,3.9,33.6C10.2,22,18.9,12.5,29.8,5.1C33.3,2.8,37,0.9,41.2,0.2
		C44.6-0.3,47.6,0.3,50,2.9C51,4,52.2,5,53.2,6.1C53.9,6.8,54.4,6.9,55.3,6.5C60,4.4,64.8,2.9,70,3.1c1.1,0,2.2,0.2,3.3,0.4
		c5.6,1.3,8.1,5.6,6.6,11.3c-1,3.7-3.1,6.8-5.6,9.7C73.9,25,73.5,25.4,73,25.9z M84,68.2c0.1,0.1,0.2,0.199,0.3,0.3
		c-1,0.899-1.9,2-3.1,2.8C74.5,76.1,67,77.7,59,76.9c-2.5-0.3-4.9-1.1-6.8-2.8c-2-1.7-2.601-4.6-1.601-7.1c1-2.3,2.7-3.2,5.7-2.9
		c4.9,0.601,9.8,0.3,14.5-0.899c4.6-1.101,9-2.801,12.5-6.101c3.2-3.1,2.7-6.2-1.4-8c-1.699-0.7-3.5-1.3-5.3-1.8
		c-1.399-0.4-2.1-1.2-2.2-2.6c-0.1-0.9,0-1.7-0.1-2.601C74,39.2,74,36.2,73.3,33.3c-0.8-3.4-4.2-4.6-6.7-2.3
		c-3.5,3.1-7.5,3.5-11.8,3c-1.6-0.2-3.4-0.3-5,0.1c-5.3,1.2-8.5,7-7.3,12.601C43.2,50.1,45.4,52.6,47.6,55.1c1.3,1.5,1.3,1.8,0,3.2
		c-6.5,7.2-6.8,22.4,6.3,28.1C65,91.3,80,86.5,86.4,76c1.5-2.5,2.5-5.101,2.601-8c0-0.9-0.4-2.5-0.9-2.601
		C86.2,65,86.3,63.6,85.9,62.3C85.7,61.5,85.3,60.7,85,59.8C84.7,60,84.5,60,84.4,60.1c-5.5,3.9-11.6,6-18.3,6.5
		c-3.399,0.2-6.8,0-10.2-0.1c-1.3,0-2.5,0-3.1,2c2.6,0.5,5.1,1.1,7.7,1.399C63,70.1,65.6,70,68.1,70c0,0.1,0,0.3,0,0.399
		C63,72.3,57.9,71.7,52.6,70.3c0.4,1.9,1.5,2.9,3,3.3c2,0.601,4,1.101,6.101,1.3c7.699,0.5,14.6-2,21.1-5.899
		C83.2,68.7,83.6,68.4,84,68.2z M50.4,8.5C49.7,7.8,48.8,7,48.1,6C46.1,3.5,43.5,2.9,40.7,3.9c-3.2,1.2-6.4,2.4-9.2,4.2
		C21.2,14.8,13.2,23.7,7.4,34.5C5.9,37.2,4.8,40.2,4,43.3c-1.2,4.3,0.1,7.2,3.899,9.3c1.7-2.2,3.9-3.8,6.601-4.6
		c1-0.3,1.5-0.8,1.8-1.7c4.4-11.1,10.9-20.6,20.5-27.9C41.2,15,45.8,11.9,50.4,8.5z M27.6,62.6C27.2,60.9,26.9,58.7,26.2,56.8
		C24.9,53.2,21.6,51,18,51c-3.9,0.1-7.3,2.5-8.601,6.2C7,63.9,11.3,71.3,18.4,72.4c4.2,0.7,7.301-1.3,8.5-5.3
		C27.2,65.8,27.3,64.4,27.6,62.6z M35,27.5c9-5.8,18.8-7.8,29.399-5.7c0-0.2,0-0.4,0.101-0.7c-3-0.8-5.9-1.6-9-2.399
		c0.399-0.5,0.899-1,1.6-1.801c-4.2,0.301-7.6,1.801-11.2,3.9c0.4-1.3,0.801-2.2,1.101-3.2C43.5,19.1,37.4,24.1,35,27.5z"/>
	<path d="M312.9,45.9c0.5-1,0.9-2.1,1.4-3.1c2.3-4.4,6.1-6.2,10.8-4.8c2.8,0.8,4.7,2.6,5.5,5.3c0.7,2.3,1,4.7,1.1,7
		c0.2,5.4,0.101,10.8,0.101,16.2c0,0.3-0.101,0.7-0.101,1.1c-3.399,0-6.8,0-10.399,0c0-0.6,0-1.1,0-1.7c0-4.8,0-9.699,0-14.5
		c0-1.1-0.2-2.3-0.5-3.3c-0.7-1.899-3.101-2.3-4-0.399c-0.8,1.699-1.4,3.6-1.5,5.5c-0.2,4.199-0.101,8.399-0.101,12.699
		c0,0.5,0,1.101,0,1.7c-3.6,0-7,0-10.7,0c0-0.5,0-1.1,0-1.6c0-4.8,0-9.601,0-14.3c0-1-0.1-2-0.3-3c-0.2-1.101-0.8-1.801-2-2
		c-1.2-0.2-2.1,0.3-2.5,1.3c-0.6,1.7-1.2,3.5-1.3,5.3c-0.2,4.2-0.1,8.4-0.1,12.7c0,0.5,0,1.1,0,1.7c-3.6,0-7,0-10.6,0
		c0-9.7,0-19.4,0-29.2c2.5,0,5.1,0,8,0c-0.301,2.6-0.601,5-0.801,7.5c0.101,0,0.2,0.1,0.301,0.1c0.199-0.399,0.5-0.8,0.699-1.2
		C296.6,43.6,297.2,42.2,298,41c2.1-3,5.199-4,8.699-3.101c3.4,0.9,5,3.301,5.4,6.601c0.1,0.5,0.2,0.899,0.3,1.399
		C312.699,45.8,312.8,45.8,312.9,45.9z"/>
	<path d="M132.3,45.8c0.5-1.1,0.9-2.2,1.5-3.3c2.3-4.4,6.2-6.101,10.9-4.7c4.1,1.2,5.6,4.5,6.199,8.3
		c0.301,2.3,0.301,4.601,0.301,6.8c0,4.7,0,9.5,0,14.301c-3.5,0-6.9,0-10.5,0c0-0.601,0-1.101,0-1.7c0-4.5,0-9.101,0-13.601
		c0-1-0.101-1.899-0.2-2.899c-0.2-1.3-0.601-2.5-2.2-2.8c-1.7-0.301-2.5,0.899-2.9,2.199c-0.5,1.7-0.8,3.5-0.8,5.2
		c-0.1,4.5,0,8.9,0,13.5c-3.6,0-7.1,0-10.7,0c0-0.8,0-1.5,0-2.2c0-4.199,0-8.399,0-12.699c0-1.4-0.1-2.801-0.3-4.101
		c-0.2-1.1-0.8-1.899-2-2c-1.2-0.2-2.1,0.3-2.5,1.3c-0.6,1.801-1.2,3.7-1.3,5.601c-0.2,4.1-0.1,8.2-0.1,12.399c0,0.5,0,1.101,0,1.7
		c-3.601,0-7,0-10.601,0c0-9.7,0-19.399,0-29.1c2.5,0,5,0,7.601,0c0.8,2.5-0.301,5-0.7,7.5c0.2,0,0.3,0.1,0.5,0.1
		c0.3-0.399,0.6-0.8,0.8-1.3c0.7-1.3,1.3-2.7,2.1-3.9C119.5,37.5,122.7,36.5,126.2,37.5c3.1,0.899,5,3.3,5.3,6.8
		c0,0.4,0.1,0.7,0.2,1.1C132,45.8,132.2,45.8,132.3,45.8z"/>
	<path d="M345.9,64.7c0,3.399,0,7,0,10.8c-3.6,0-7,0-10.5,0c0-12.4,0-24.7,0-37.3c2.4,0,4.8,0,7.2,0c0.2,0,0.6,0.699,0.6,1
		c-0.1,1.5-0.3,3-0.399,4.5c-0.101,0.699-0.3,1.3-0.4,2c0.101,0.1,0.2,0.1,0.4,0.199c0.2-0.3,0.5-0.5,0.6-0.8
		c0.4-0.7,0.7-1.5,1.101-2.2c4-7.899,14.3-6.399,17.8-0.399c2.399,4.1,2.7,8.6,2.3,13.1c-0.2,2.7-0.9,5.3-2.4,7.601
		C359.8,67,355.1,69.1,351,67.7C349.199,67.1,347.6,65.8,345.9,64.7z M354.4,53.8c-0.399-1.7-0.5-3.6-1.2-5.3
		c-1.1-2.7-4.2-2.8-5.8-0.5c-2,2.8-2,8.5-0.1,11.399c0.8,1.2,1.8,1.9,3.3,1.7s2.5-1,2.899-2.3C353.8,57.2,354,55.6,354.4,53.8z"/>
	<path d="M250.4,45.9c0.2-0.3,0.5-0.6,0.7-0.899c0.3-0.601,0.601-1.2,0.9-1.8c2.3-4.5,6-6.4,10.6-5.5c4,0.699,6.5,3.6,7.101,8.6
		c0.3,2.6,0.3,5.3,0.399,7.9c0.101,4.399,0,8.699,0,13.199c-3.6,0-7,0-10.7,0c0-0.6,0-1.199,0-1.699c0-5.101,0-10.301,0-15.4
		c0-2.5-0.899-3.7-2.399-3.8c-1.601-0.2-2.8,0.8-3.5,3.2c-0.3,1.199-0.5,2.399-0.5,3.6c-0.101,4.2,0,8.4,0,12.7c0,0.5,0,1,0,1.6
		c-3.601,0-7,0-10.601,0c0-12.6,0-25.3,0-38.1c2.801,0,5.7,0,8.5,0.1c0.301,0,0.801,0.8,0.9,1.3c0.5,4.5,0,8.9-1.3,13.301
		c-0.2,0.6-0.301,1.199-0.4,1.8C250,45.8,250.2,45.8,250.4,45.9z"/>
	<path d="M171.5,49.5c0.2-2-0.601-3.5-2.4-3.601c-2.1-0.199-4.3-0.1-6.3,0.4c-2.4,0.6-4.7,1.7-7.3,2.7c0-2.7,0-5.4,0-8.101
		c0-0.3,0.399-0.699,0.7-0.8c5.1-2.1,10.399-3.1,16-2.399c5,0.6,8.1,3.699,9.199,8.5c0.5,2.1,0.801,4.199,0.801,6.3
		c0.1,4.6,0,9.3,0,13.899c0,0.301-0.101,0.601-0.101,1c-2.6,0-5.2,0-8.1,0C173.9,65,173.8,62.5,173.6,60
		c-0.1,0-0.3-0.101-0.399-0.101C172.9,60.5,172.6,61,172.4,61.6C170.2,67.1,164.2,69.7,158.7,67.4c-3-1.199-4.801-3.5-5.101-6.699
		c-0.3-3.7,0.601-7.2,4.101-9.101c2-1.1,4.399-1.7,6.699-2.1C166.7,49.2,169.1,49.5,171.5,49.5z M171.6,55.6c-1.3,0-2.6-0.1-3.8,0
		c-1.3,0.2-2.6,0.5-3.7,1c-1,0.5-1.3,1.601-1,2.8c0.4,1.2,1.3,1.4,2.4,1.4C168.1,60.7,170.7,58.6,171.6,55.6z"/>
	<path d="M238.8,54.8c0,3.2,0,6.2,0,9.1c0,0.4-0.4,0.9-0.8,1.2c-5.5,3.601-11.3,4.3-17.2,1.5c-5.2-2.5-7.1-7.2-7.5-12.6
		c-0.1-1.9,0-3.8,0.4-5.601C214.9,42.6,218.6,39,224.4,38c4.4-0.8,8.801-0.4,12.9,1.6c1,0.5,1.6,1.2,1.5,2.5
		c-0.1,2.8,0,5.601,0,8.601c-0.6-0.301-1-0.5-1.4-0.7c-3.1-1.5-6.3-2.4-9.699-2c-0.601,0.1-1.101,0.2-1.601,0.3
		c-2.6,0.8-4.1,2.8-3.899,5c0.199,2.4,1.899,4,4.699,4.5c3.5,0.6,6.801-0.2,9.9-1.8C237.2,55.6,237.9,55.3,238.8,54.8z"/>
	<path d="M210.3,67.4c-3.5,0-6.9,0-10.4,0c0-12.699,0-25.3,0-38.1c3.5,0,6.9,0,10.4,0C210.3,42,210.3,54.7,210.3,67.4z"/>
	<path d="M185.8,38.3c3.5,1.2,7,1.1,10.5,0c0,9.7,0,19.3,0,29c-3.5,0-6.9,0-10.5,0C185.8,57.8,185.8,48.1,185.8,38.3z"/>
	<path d="M273.6,38.3c3.5,1.2,6.9,1.1,10.4,0c0,9.7,0,19.3,0,29c-3.4,0-6.8,0-10.4,0C273.6,57.8,273.6,48.1,273.6,38.3z"/>
	<path d="M279.1,28.6c1.601,0.7,3.4,1.2,4.9,2.2c1.899,1.3,1.8,3.6,0,5.1c-2.601,2.2-7.8,2.2-10.4,0c-1.8-1.5-1.8-3.699,0-5.199
		c1.2-1.101,3.101-1.601,5.3-1.601C279,28.9,279,28.7,279.1,28.6z"/>
	<path d="M191,28.5c1.8,0.8,3.6,1.2,5,2.2c1.899,1.3,1.8,3.699,0,5.199c-2.601,2.2-7.601,2.2-10.2,0c-1.9-1.6-2-3.899,0.1-5.3
		C187.4,29.7,189.2,29.2,191,28.5z"/>
	<path d="M72,44.1c-0.101,2.101-0.4,2.4-1.9,2.2c-0.399,0-0.899-0.4-1-0.7C68.6,44,68.2,42.4,68,40.8c-0.101-0.5,0.7-1.6,1.1-1.6
		c0.601,0,1.601,0.5,1.8,1.1C71.5,41.4,71.7,42.8,72,44.1z"/>
	<path d="M59.6,49.1C56.1,46.9,52.7,47.2,49.2,48.6c0.3-2,2.699-3.3,5.199-3.3C57,45.3,59.3,46.7,59.6,49.1z"/>
	<path d="M59.2,50.7C57.1,50.9,55.1,51.1,53.1,51.4c0.101-1,0.601-1.6,2.2-1.899C57.1,49,58.4,49.4,59.2,50.7z"/>
	<path d="M65.4,50.9C66.8,51,67.7,51.5,67.8,52.6c0,0.3-0.8,1-1.2,1c-1,0-1.899-0.5-2-1.6C64.5,51.6,65.2,51.1,65.4,50.9z"/>
	<path d="M73,50.3c-0.9,0.7-1.4,1.2-2,1.6C70.6,51.3,69.9,50.7,69.9,50.2c0-0.601,0.7-1.101,1.101-1.7C71.6,49.1,72.1,49.6,73,50.3z
		"/>
	<path d="M24.3,66.5c-0.7,0.3-1.6,1-2.2,0.899C21.2,67.2,20,66.5,19.8,65.8c-0.3-1.2,0-2.6,0-4c0-0.9,0.2-2-0.3-2.7
		c-0.4-0.7-1.5-1.1-2.4-1.2c-1.2-0.1-2,0.801-2.5,1.9c-0.3,0.7-0.899,1.2-1.3,1.8c-0.1-0.899-0.4-1.8-0.2-2.6
		c0.601-2.5,2.3-3.9,4.5-4.101c1.8-0.1,3.9,0.9,4.5,2.801c0.4,1.199,0.2,2.6,0.101,4c0,0.6-0.5,1.1-0.7,1.699
		C20.8,65.3,21.4,66,23.4,65.9C23.6,65.9,23.8,66,24,66C24.1,66.1,24.2,66.3,24.3,66.5z"/>
</g>
</svg>
