<?xml version="1.0" encoding="utf-8"?>
<!-- Generator: Adobe Illustrator 16.0.3, SVG Export Plug-In . SVG Version: 6.00 Build 0)  -->
<!DOCTYPE svg PUBLIC "-//W3C//DTD SVG 1.1//EN" "http://www.w3.org/Graphics/SVG/1.1/DTD/svg11.dtd">
<svg version="1.1" id="Layer_1" xmlns="http://www.w3.org/2000/svg" xmlns:xlink="http://www.w3.org/1999/xlink" x="0px" y="0px"
	 width="1600.4px" height="457.1px" viewBox="0 1271.5 1600.4 457.1" enable-background="new 0 1271.5 1600.4 457.1"
	 xml:space="preserve">
<g opacity="0.3">
	<g>
		<path id="s_2_" d="M553.2,1525.6c-13.6-7.5-20.8-13.6-20.8-22.2c0-11.1,9.7-17.9,25.1-17.9
			c17.9,0,33.7,7.5,33.7,7.5l12.5-38.4c0,0-11.5-9-45.5-9c-47.3,0-80.3,27.2-80.3,65.2c0,21.5,15.4,38,35.8,49.8
			c16.5,9.3,22.2,16.1,22.2,25.8c0,10.4-8.2,18.6-23.7,18.6c-22.9,0-44.5-11.8-44.5-11.8l-13.3,38.4c0,0,20.1,13.3,53.4,13.3
			c48.8,0,83.5-24,83.5-67C592.2,1554.3,574.3,1537.8,553.2,1525.6z"/>
		<path id="h_2_" d="M747.5,1445c-24,0-42.7,11.5-57.4,28.7l-0.7-0.4l20.8-109h-54.1l-52.7,277.1h54.1l17.9-94.6
			c7.2-35.8,25.5-57.7,42.7-57.7c12.2,0,16.8,8.2,16.8,20.1c0,7.5-0.7,16.5-2.5,24L712,1641.8h54.1l21.2-111.9
			c2.5-11.8,3.9-25.8,3.9-35.5C791.6,1463.3,775.4,1445,747.5,1445z"/>
		<path id="o_1_" d="M914.2,1445c-65.2,0-108.6,58.8-108.6,124.4c0,41.9,25.8,76,74.6,76
			c64.2,0,107.2-57.4,107.2-124.4C987.7,1481.9,965.1,1445,914.2,1445z M887.7,1603.4c-18.6,0-26.2-15.8-26.2-35.5
			c0-31.2,16.1-81.7,45.5-81.7c19.4,0,25.5,16.5,25.5,32.6C932.5,1552.5,916.3,1603.4,887.7,1603.4z"/>
		<path id="p_1_" d="M1126.4,1445c-36.6,0-57.4,32.3-57.4,32.3h-0.7l3.2-29h-48c-2.5,19.7-6.8,49.5-11.1,72.1
			l-37.6,198.6h54.1l15.1-80.3h1.1c0,0,11.1,7.2,31.9,7.2c63.8,0,105.4-65.2,105.4-131.2C1182.3,1477.6,1166.2,1445,1126.4,1445z
			 M1074.8,1604.5c-14,0-22.2-7.9-22.2-7.9l9-50.5c6.5-33.7,24-56.3,42.7-56.3c16.5,0,21.5,15.4,21.5,29.8
			C1125.7,1554.3,1104.9,1604.5,1074.8,1604.5z"/>
		<path id="dot_2_" d="M1259.8,1366.8c-17.2,0-31.2,13.6-31.2,31.5c0,16.1,10,27.2,25.5,27.2h0.7
			c16.8,0,31.5-11.5,31.9-31.5C1287,1378.3,1276.3,1366.8,1259.8,1366.8z"/>
		<polygon id="i_2_" points="1183.8,1641.4 1238.3,1641.4 1275.2,1449.3 1220.3,1449.3 		"/>
		<path id="f_2_" d="M1412.9,1448.6h-37.6l1.8-9c3.2-18.6,14-35.1,32.3-35.1c9.7,0,17.2,2.9,17.2,2.9l10.8-42.3
			c0,0-9.3-4.7-29.4-4.7c-19.4,0-38.4,5.4-53.1,17.9c-18.6,15.8-27.2,38.4-31.5,61.3l-1.4,9h-25.1l-7.9,40.9h25.1l-28.7,151.6h54.1
			l28.7-151.6h37.3L1412.9,1448.6z"/>
		<path id="y_2_" d="M1543.4,1449.3c0,0-34.1,85.3-49.1,131.9h-0.7c-1.1-15.1-13.3-131.9-13.3-131.9h-57l32.6,176.4
			c0.7,3.9,0.4,6.5-1.1,9c-6.5,12.2-16.8,24-29.4,32.6c-10,7.5-21.5,12.2-30.5,15.4l15.1,45.9c11.1-2.5,33.7-11.5,53.1-29.4
			c24.7-23.3,47.7-58.8,71-107.6l66.3-142.3H1543.4z"/>
	</g>
	<g>
		<path d="M258.1,1717.1l134.1-29c0,0-48.4-327.3-48.8-329.5s-2.2-3.6-3.9-3.6c-1.8,0-35.9-2.5-35.9-2.5
			s-23.7-23.7-26.5-26.2c-0.7-0.7-1.4-1.1-2.2-1.4L258.1,1717.1z"/>
		<path d="M269.2,1324.2c-0.4,0-1.1,0.4-1.4,0.4s-5.4,1.4-13.3,3.9c-7.9-22.9-21.9-44.1-46.6-44.1
			c-0.7,0-1.4,0-2.2,0c-7.2-9-15.8-12.9-23.3-12.9c-57.7,0-85.3,72.1-93.9,108.6c-22.2,6.8-38.4,11.8-40.2,12.5
			c-12.5,3.9-12.9,4.3-14.3,16.1C32.6,1417.4,0,1670.1,0,1670.1l252,47.3L269.2,1324.2z M203.6,1341.7c0,0.7,0,1.8,0,2.5
			c-14,4.3-29.4,9-44.5,13.6c8.6-33,24.7-49.1,38.7-55.2C201.5,1312,203.6,1324.5,203.6,1341.7z M180.7,1286.9c2.5,0,5,0.7,7.5,2.5
			c-18.3,8.6-38.4,30.5-46.6,74.2c-12.2,3.9-24,7.5-35.1,10.8C116.2,1341,139.5,1286.9,180.7,1286.9z M190.7,1481.5
			c0,0-15.1-7.9-33-7.9c-26.9,0-28,16.8-28,21.2c0,22.9,60.2,31.9,60.2,86c0,42.7-26.9,69.9-63.5,69.9c-43.7,0-66-27.2-66-27.2
			l11.8-38.7c0,0,22.9,19.7,42.3,19.7c12.5,0,17.9-10,17.9-17.2c0-30.1-49.5-31.5-49.5-81c0-41.6,29.8-82.1,90.3-82.1
			c23.3,0,34.8,6.8,34.8,6.8L190.7,1481.5z M213.7,1300.1c12.9,1.4,21.2,16.1,26.5,32.6c-6.5,2.2-13.6,4.3-21.5,6.8
			c0-1.4,0-2.9,0-4.7C218.7,1320.9,216.9,1309.5,213.7,1300.1z"/>
	</g>
</g>
</svg>
